<svg width="632" height="326" viewBox="0 0 632 326" fill="none" xmlns="http://www.w3.org/2000/svg">
<path fill-rule="evenodd" clip-rule="evenodd" d="M122.305 149.576C108.555 154.813 76.38 166.947 50.805 176.539C25.23 186.132 3.276 194.508 2.018 195.152C0.759999 195.796 -0.140001 197.026 0.0179994 197.885C0.349999 199.692 0.521997 199.776 24.305 209.84L42.305 217.457L42.576 237.224C42.811 254.366 42.64 257.072 41.289 257.59C39.313 258.349 36.804 263.141 36.809 266.146C36.811 267.411 37.698 269.899 38.781 271.674L40.749 274.903L36.574 296.454L32.398 318.006L36.051 321.658C39.259 324.867 40.42 325.363 45.594 325.737C52.283 326.221 56.741 324.5 59.431 320.394C60.971 318.044 60.904 316.484 58.378 295.812C56.019 276.505 55.862 273.534 57.125 272.093C60.527 268.212 59.852 260.496 55.866 257.699C54.331 256.622 53.982 254.166 53.378 240.205C52.991 231.273 52.954 223.515 53.294 222.964C53.687 222.328 55.258 222.537 57.608 223.538C81.082 233.532 151.101 261.946 152.255 261.946C153.088 261.946 169.189 255.379 188.037 247.352C243.983 223.526 265.372 214.473 282.805 207.239C296.028 201.753 299.365 199.98 299.606 198.315C299.964 195.839 297.666 194.757 271.81 185.228C262.182 181.681 247.78 176.374 239.805 173.436C231.83 170.498 215.63 164.43 203.805 159.953C169.488 146.959 150.089 139.942 148.645 140C147.908 140.029 136.055 144.339 122.305 149.576ZM75.332 266.842C74.932 278.335 74.912 288.708 75.288 289.892C75.706 291.21 77.974 292.943 81.138 294.361C153.869 326.962 152.085 326.232 155.805 324.894C163.34 322.185 227.348 292.679 228.04 291.596C229.183 289.806 228.974 245.946 227.822 245.946C227.281 245.946 217.719 249.936 206.572 254.813C195.425 259.69 178.803 266.92 169.633 270.879L152.962 278.078L115.459 262.012C94.832 253.176 77.529 245.946 77.008 245.946C76.464 245.946 75.75 254.851 75.332 266.842Z" fill="black"/>
<path fill-rule="evenodd" clip-rule="evenodd" d="M143.352 1.40531C137.966 3.95431 135.216 7.16531 133.763 12.6013C131.9 19.5733 133.22 24.2853 138.441 29.2953C140.867 31.6233 142.852 34.3793 142.852 35.4193C142.852 41.8233 130.576 66.3163 123.383 74.2653C116.322 82.0683 110.571 84.9653 102.405 84.8353C92.6588 84.6803 80.4138 78.9693 75.7338 72.3973C73.8518 69.7533 73.7928 69.2833 75.1528 67.7583C77.4898 65.1393 78.9538 58.4033 77.9478 54.8963C76.4308 49.6063 74.9058 47.6303 70.6768 45.4733C59.8738 39.9623 46.9968 49.8613 49.2618 61.9363C50.0878 66.3393 54.2168 71.3993 58.4148 73.1533C61.9768 74.6413 60.6898 69.8673 71.3298 121.062C75.8358 142.746 76.7788 146.1 78.4388 146.348C79.4908 146.505 93.6268 142.072 109.852 136.496C150.012 122.694 150.432 122.57 153.639 123.561C155.131 124.022 162.202 126.498 169.352 129.064C199.76 139.976 222.369 147.442 222.992 146.776C223.533 146.199 237.852 77.2633 237.852 75.2383C237.852 74.9183 239.363 73.9393 241.209 73.0633C247.42 70.1153 250.177 66.2373 250.627 59.8133C250.962 55.0163 250.641 53.4963 248.691 50.6493C247.404 48.7723 244.654 46.3603 242.579 45.2893C234.775 41.2623 224.135 46.0853 221.814 54.7033C220.696 58.8563 220.958 60.6853 223.547 66.7793C224.991 70.1793 224.988 70.7063 223.504 72.9703C221.396 76.1873 214.01 81.2393 208.613 83.1563C202.264 85.4113 192.662 85.1333 187.302 82.5383C179.842 78.9263 172.793 70.0213 165.361 54.8203C161.718 47.3693 158.375 39.3323 157.932 36.9603C157.192 33.0023 157.358 32.4423 159.949 30.1333C168.737 22.3033 168.014 8.53331 158.505 2.65731C153.589 -0.380688 148.087 -0.835687 143.352 1.40531Z" fill="#D3AF37"/>
<path d="M316.8 154V93.83L314.6 82.72L316.8 76.12H352C357.353 76.12 362.157 76.9633 366.41 78.65C370.737 80.2633 374.147 83.05 376.64 87.01C379.207 90.8967 380.49 96.2867 380.49 103.18C380.49 110.073 379.133 115.537 376.42 119.57C373.707 123.53 369.93 126.353 365.09 128.04C360.323 129.727 354.86 130.57 348.7 130.57H336.6V136.29L337.7 147.29L336.6 154H316.8ZM336.6 113.3H347.38C351.193 113.3 354.237 112.603 356.51 111.21C358.783 109.743 359.92 107.067 359.92 103.18C359.92 100.467 359.37 98.45 358.27 97.13C357.17 95.7367 355.63 94.82 353.65 94.38C351.743 93.94 349.507 93.72 346.94 93.72H335.5L336.6 113.3ZM391.084 154V93.72L388.884 82.72L391.084 76.12H410.884V93.94L409.784 106.15L410.884 106.7C411.764 105.38 413.378 104.097 415.724 102.85C418.144 101.53 421.298 100.87 425.184 100.87C431.784 100.87 436.734 102.74 440.034 106.48C443.334 110.22 444.984 115.463 444.984 122.21V136.51L447.294 147.29L444.984 154H425.184V125.07C425.184 122.283 424.561 120.157 423.314 118.69C422.141 117.15 420.271 116.38 417.704 116.38L410.884 119.57V154H391.084ZM474.951 155.1C471.504 155.1 468.167 154.22 464.941 152.46C461.787 150.7 459.184 147.913 457.131 144.1C455.077 140.287 454.051 135.3 454.051 129.14C454.051 122.32 455.041 116.857 457.021 112.75C459.074 108.643 461.714 105.673 464.941 103.84C468.167 101.933 471.504 100.98 474.951 100.98C480.157 100.98 483.824 101.42 485.951 102.3C488.151 103.18 489.251 103.62 489.251 103.62L488.151 82.83L489.251 76.23H509.161V136.4L511.361 147.4L509.161 154.11H490.351V148.72L489.251 148.17C489.251 148.17 488.701 148.757 487.601 149.93C486.501 151.03 484.887 152.167 482.761 153.34C480.634 154.513 478.031 155.1 474.951 155.1ZM483.201 139.59L489.251 138.05V121.99C489.251 120.303 488.701 118.983 487.601 118.03C486.501 117.003 485.034 116.49 483.201 116.49C480.487 116.49 478.434 117.407 477.041 119.24C475.647 121 474.951 123.933 474.951 128.04C474.951 132.073 475.757 135.007 477.371 136.84C478.984 138.673 480.927 139.59 483.201 139.59Z" fill="black"/>
<path d="M316.8 291V231.16L314.6 220.05L316.8 213.12H336.6V226.32L335.5 246.01H342.1L359.81 213.12H381.7V219.72L359.92 250.63L378.4 273.51L389.29 284.4V291H364.54L344.52 261.85L336.6 262.95V277.8L337.7 284.4L336.6 291H316.8ZM406.893 235.89L392.923 221.81L406.893 207.84L420.863 221.81L406.893 235.89ZM396.993 291V254.59L394.683 245.79L396.883 239.08H416.793V291H396.993ZM429.112 291V257.89L426.912 245.79L430.322 239.08H446.712V243.81L447.702 244.47C448.508 243.737 449.608 242.893 451.002 241.94C452.468 240.913 454.228 239.997 456.282 239.19C458.335 238.383 460.645 237.98 463.212 237.98C469.812 237.98 474.762 239.85 478.062 243.59C481.362 247.33 483.012 252.573 483.012 259.32V273.29L485.322 284.29L483.012 291H463.212V262.18C463.212 259.393 462.588 257.267 461.342 255.8C460.168 254.26 458.298 253.49 455.732 253.49L448.912 255.58V291H429.112ZM517.488 317.73C515.655 317.73 513.565 317.657 511.218 317.51C508.871 317.437 506.965 317.327 505.498 317.18L492.078 310.69L497.578 296.39L514.848 302C524.601 302 529.478 297.93 529.478 289.79V287.7L528.378 287.15C527.351 288.177 525.701 289.24 523.428 290.34C521.228 291.367 517.745 291.88 512.978 291.88C509.531 291.88 506.195 291.037 502.968 289.35C499.741 287.59 497.101 284.803 495.048 280.99C493.068 277.177 492.078 272.227 492.078 266.14C492.078 259.32 493.105 253.857 495.158 249.75C497.211 245.57 499.815 242.527 502.968 240.62C506.195 238.713 509.531 237.76 512.978 237.76C516.791 237.76 519.908 238.31 522.328 239.41C524.821 240.51 526.471 241.573 527.278 242.6V238.97H547.188L548.288 245.57L547.078 252.17L547.188 290.89C547.188 297.197 545.941 302.33 543.448 306.29C541.028 310.25 537.581 313.147 533.108 314.98C528.708 316.813 523.501 317.73 517.488 317.73ZM521.228 276.37C522.548 276.37 523.758 276.187 524.858 275.82C525.958 275.453 526.765 275.123 527.278 274.83V254.26C526.985 254.04 526.435 253.82 525.628 253.6C524.821 253.38 523.721 253.27 522.328 253.27C519.468 253.27 517.195 254.187 515.508 256.02C513.821 257.853 512.978 260.823 512.978 264.93C512.978 268.963 513.785 271.897 515.398 273.73C517.011 275.49 518.955 276.37 521.228 276.37ZM580.757 292.1C575.404 292.1 570.674 291.55 566.567 290.45C562.46 289.35 559.27 288.213 556.997 287.04V271.75C560.004 273.07 563.084 274.097 566.237 274.83C569.464 275.563 572.36 276.077 574.927 276.37C577.494 276.59 579.327 276.7 580.427 276.7C581.674 276.7 582.554 276.517 583.067 276.15C583.58 275.71 583.837 275.197 583.837 274.61C583.837 273.803 583.177 273.143 581.857 272.63C580.537 272.043 578.044 271.31 574.377 270.43C571.37 269.697 568.437 268.78 565.577 267.68C562.79 266.507 560.48 264.893 558.647 262.84C556.887 260.787 556.007 258.037 556.007 254.59C556.007 250.337 556.997 247 558.977 244.58C560.957 242.16 563.78 240.473 567.447 239.52C571.114 238.493 575.404 237.98 580.317 237.98C583.104 237.98 585.707 238.127 588.127 238.42C590.547 238.713 592.27 238.933 593.297 239.08L603.527 245.68L598.577 257.45L579.327 253.27C576.98 253.27 575.807 254.04 575.807 255.58C575.807 257.193 577.494 258.403 580.867 259.21C583.507 259.797 586.22 260.457 589.007 261.19C591.794 261.85 594.324 262.73 596.597 263.83C598.944 264.93 600.814 266.397 602.207 268.23C603.674 270.063 604.407 272.483 604.407 275.49C604.407 281.063 602.39 285.243 598.357 288.03C594.397 290.743 588.53 292.1 580.757 292.1Z" fill="#D3AF37"/>
</svg>
