<svg width="242" height="272" viewBox="0 0 242 272" fill="none" xmlns="http://www.w3.org/2000/svg">
<path fill-rule="evenodd" clip-rule="evenodd" d="M98.7787 124.04C87.6736 128.436 61.6877 138.623 41.0323 146.676C20.3768 154.73 2.64584 161.762 1.62982 162.302C0.613808 162.843 -0.11307 163.876 0.0145371 164.597C0.282674 166.114 0.421587 166.184 19.6298 174.634L34.1673 181.028L34.3862 197.623C34.576 212.015 34.4379 214.287 33.3468 214.721C31.7509 215.359 29.7245 219.382 29.7285 221.904C29.7301 222.967 30.4465 225.055 31.3212 226.545L32.9106 229.256L29.5387 247.349L26.166 265.443L29.1163 268.509C31.7072 271.203 32.6449 271.619 36.8237 271.933C42.226 272.34 45.8264 270.895 47.999 267.448C49.2428 265.475 49.1887 264.165 47.1486 246.81C45.2433 230.601 45.1165 228.107 46.1366 226.897C48.8842 223.639 48.339 217.161 45.1198 214.813C43.88 213.909 43.5982 211.847 43.1103 200.126C42.7978 192.627 42.7679 186.114 43.0425 185.652C43.3599 185.118 44.6287 185.293 46.5267 186.134C65.4853 194.524 122.036 218.378 122.968 218.378C123.64 218.378 136.644 212.865 151.867 206.126C197.051 186.123 214.326 178.523 228.405 172.45C239.085 167.844 241.78 166.356 241.975 164.958C242.264 162.879 240.408 161.971 219.525 153.971C211.749 150.993 200.118 146.538 193.677 144.071C187.236 141.604 174.152 136.51 164.602 132.752C136.886 121.843 121.218 115.952 120.052 116C119.457 116.025 109.884 119.643 98.7787 124.04ZM60.8413 222.489C60.5183 232.138 60.5021 240.846 60.8058 241.84C61.1434 242.947 62.9751 244.402 65.5305 245.592C124.271 272.962 122.83 272.349 125.835 271.226C131.92 268.951 183.616 244.18 184.175 243.271C185.098 241.768 184.929 204.946 183.999 204.946C183.562 204.946 175.839 208.296 166.836 212.39C157.834 216.484 144.409 222.554 137.003 225.878L123.539 231.922L93.2496 218.434C76.5904 211.016 62.6157 204.946 62.1949 204.946C61.7556 204.946 61.1789 212.422 60.8413 222.489Z" fill="black"/>
<path fill-rule="evenodd" clip-rule="evenodd" d="M115.974 1.15819C111.409 3.25896 109.078 5.90531 107.846 10.3854C106.267 16.1314 107.386 20.0148 111.811 24.1438C113.868 26.0624 115.55 28.3338 115.55 29.1909C115.55 34.4688 105.145 54.6547 99.0481 61.2059C93.063 67.6368 88.1884 70.0243 81.2668 69.9172C73.0059 69.7895 62.6269 65.0827 58.66 59.6664C57.0648 57.4873 57.0148 57.1 58.1675 55.8432C60.1484 53.6847 61.3893 48.1332 60.5366 45.2429C59.2508 40.8832 57.9582 39.2546 54.3736 37.4769C45.2168 32.935 34.3021 41.0933 36.2219 51.0449C36.922 54.6737 40.4219 58.8439 43.9801 60.2895C46.9994 61.5158 45.9085 57.5813 54.9271 99.7738C58.7465 117.645 59.5458 120.409 60.9528 120.613C61.8445 120.743 73.8264 117.089 87.579 112.494C121.619 101.119 121.975 101.017 124.694 101.833C125.958 102.213 131.952 104.254 138.012 106.369C163.786 115.362 182.95 121.515 183.478 120.966C183.937 120.49 196.074 63.6767 196.074 62.0078C196.074 61.7441 197.355 60.9372 198.919 60.2153C204.184 57.7857 206.521 54.5896 206.902 49.2953C207.186 45.3418 206.914 44.0891 205.261 41.7427C204.17 40.1958 201.839 38.208 200.08 37.3253C193.466 34.0064 184.447 37.9813 182.48 45.0839C181.532 48.5066 181.754 50.0139 183.949 55.0363C185.173 57.8384 185.17 58.2728 183.912 60.1386C182.125 62.7899 175.865 66.9536 171.29 68.5335C165.909 70.3919 157.77 70.1628 153.227 68.0241C146.904 65.0473 140.929 57.7082 134.629 45.1803C131.541 39.0395 128.708 32.4158 128.332 30.4609C127.705 27.1989 127.846 26.7374 130.042 24.8344C137.491 18.3813 136.878 7.03275 128.818 2.19003C124.651 -0.313745 119.988 -0.688733 115.974 1.15819Z" fill="#D3AF37"/>
</svg>
