<svg width="2881" height="1044" viewBox="0 0 2881 1044" fill="none" xmlns="http://www.w3.org/2000/svg">
<path fill-rule="evenodd" clip-rule="evenodd" d="M2584.73 15.4328C2559.63 69.6378 2544.29 114.604 2535.36 160.205C2529.61 189.578 2527.47 211.693 2527.49 241.705C2527.52 303.399 2540.54 356.921 2570.66 419.205C2584.74 448.325 2596.24 468.371 2629.75 522.205C2673.13 591.919 2689.57 621.973 2703.04 656.205C2717.41 692.744 2722.49 717.04 2723.45 753.808C2724.68 800.531 2716.31 839.61 2696.61 879.205C2664.16 944.417 2605.74 990.765 2531.54 1010.16C2517.98 1013.7 2497.86 1017.62 2492.32 1017.8C2489.34 1017.9 2489.32 1017.93 2491.75 1018.7C2495.37 1019.87 2543.75 1019.86 2560.75 1018.69C2630.9 1013.88 2695.84 997.537 2742.75 972.88C2766.75 960.262 2785.44 946.87 2802.3 930.205C2838.07 894.853 2864.06 851.549 2874.84 809.344C2880.27 788.089 2882.24 757.397 2879.69 733.916C2874.62 687.154 2853.06 633.704 2817.26 579.114C2798.43 550.4 2780.36 526.006 2728.81 459.705C2680.1 397.045 2654.86 362.727 2637.58 335.622C2595.7 269.956 2573.7 214.865 2567.31 159.705C2564.33 133.925 2565.56 97.8018 2570.28 72.7048C2573.92 53.3378 2581.35 28.1838 2588.86 9.80777C2590.98 4.60477 2592.57 0.192769 2592.38 0.00376907C2592.19 -0.185231 2588.75 6.75777 2584.73 15.4328Z" fill="#CFEAEA"/>
<path fill-rule="evenodd" clip-rule="evenodd" d="M2461.73 15.4328C2436.63 69.6378 2421.29 114.604 2412.36 160.205C2406.61 189.578 2404.47 211.693 2404.49 241.705C2404.52 303.399 2417.54 356.921 2447.66 419.205C2461.74 448.325 2473.24 468.371 2506.75 522.205C2550.13 591.919 2566.57 621.973 2580.04 656.205C2594.41 692.744 2599.49 717.04 2600.45 753.808C2601.68 800.531 2593.31 839.61 2573.61 879.205C2541.16 944.417 2482.74 990.765 2408.54 1010.16C2394.98 1013.7 2374.86 1017.62 2369.32 1017.8C2366.34 1017.9 2366.32 1017.93 2368.75 1018.7C2372.37 1019.87 2420.75 1019.86 2437.75 1018.69C2507.9 1013.88 2572.84 997.537 2619.75 972.88C2643.75 960.262 2662.44 946.87 2679.3 930.205C2715.07 894.853 2741.06 851.549 2751.84 809.344C2757.27 788.089 2759.24 757.397 2756.69 733.916C2751.62 687.154 2730.06 633.704 2694.26 579.114C2675.43 550.4 2657.36 526.006 2605.81 459.705C2557.1 397.045 2531.86 362.727 2514.58 335.622C2472.7 269.956 2450.7 214.865 2444.31 159.705C2441.33 133.925 2442.56 97.8018 2447.28 72.7048C2450.92 53.3378 2458.35 28.1838 2465.86 9.80777C2467.98 4.60477 2469.57 0.192769 2469.38 0.00376907C2469.19 -0.185231 2465.75 6.75777 2461.73 15.4328Z" fill="#8BC5C5"/>
<path fill-rule="evenodd" clip-rule="evenodd" d="M2349.73 15.4328C2324.63 69.6378 2309.29 114.604 2300.36 160.205C2294.61 189.578 2292.47 211.693 2292.49 241.705C2292.52 303.399 2305.54 356.921 2335.66 419.205C2349.74 448.325 2361.24 468.371 2394.75 522.205C2438.13 591.919 2454.57 621.973 2468.04 656.205C2482.41 692.744 2487.49 717.04 2488.45 753.808C2489.68 800.531 2481.31 839.61 2461.61 879.205C2429.16 944.417 2370.74 990.765 2296.54 1010.16C2282.98 1013.7 2262.86 1017.62 2257.32 1017.8C2254.34 1017.9 2254.32 1017.93 2256.75 1018.7C2260.37 1019.87 2308.75 1019.86 2325.75 1018.69C2395.9 1013.88 2460.84 997.537 2507.75 972.88C2531.75 960.262 2550.44 946.87 2567.3 930.205C2603.07 894.853 2629.06 851.549 2639.84 809.344C2645.27 788.089 2647.24 757.397 2644.69 733.916C2639.62 687.154 2618.06 633.704 2582.26 579.114C2563.43 550.4 2545.36 526.006 2493.81 459.705C2445.1 397.045 2419.86 362.727 2402.58 335.622C2360.7 269.956 2338.7 214.865 2332.31 159.705C2329.33 133.925 2330.56 97.8018 2335.28 72.7048C2338.92 53.3378 2346.35 28.1838 2353.86 9.80777C2355.98 4.60477 2357.57 0.192769 2357.38 0.00376907C2357.19 -0.185231 2353.75 6.75777 2349.73 15.4328Z" fill="#4C9494"/>
<path d="M115.513 886H52.0508L52.4512 839.154H115.513C131.261 839.154 144.541 835.618 155.352 828.544C166.162 821.337 174.303 810.86 179.775 797.113C185.381 783.367 188.184 766.75 188.184 747.265V733.051C188.184 718.103 186.582 704.957 183.379 693.612C180.309 682.268 175.705 672.725 169.565 664.984C163.426 657.243 155.885 651.438 146.943 647.567C138.001 643.563 127.725 641.562 116.113 641.562H50.8496V594.516H116.113C135.599 594.516 153.416 597.852 169.565 604.525C185.848 611.065 199.928 620.474 211.807 632.753C223.685 645.032 232.827 659.713 239.233 676.796C245.773 693.746 249.043 712.631 249.043 733.451V747.265C249.043 767.951 245.773 786.837 239.233 803.92C232.827 821.003 223.685 835.684 211.807 847.963C200.062 860.108 185.981 869.517 169.565 876.19C153.283 882.73 135.265 886 115.513 886ZM86.084 594.516V886H26.0254V594.516H86.084ZM292.686 594.516H401.392C423.68 594.516 442.832 597.852 458.848 604.525C474.997 611.199 487.409 621.075 496.084 634.154C504.759 647.234 509.097 663.316 509.097 682.401C509.097 698.017 506.427 711.43 501.089 722.641C495.884 733.718 488.477 742.994 478.867 750.468C469.391 757.808 458.247 763.681 445.435 768.085L426.416 778.095H331.924L331.523 731.249H401.792C412.336 731.249 421.077 729.381 428.018 725.644C434.958 721.907 440.163 716.701 443.633 710.028C447.236 703.355 449.038 695.614 449.038 686.806C449.038 677.463 447.303 669.389 443.833 662.582C440.363 655.775 435.091 650.57 428.018 646.967C420.944 643.363 412.069 641.562 401.392 641.562H352.744V886H292.686V594.516ZM455.645 886L389.18 756.073L452.642 755.673L519.907 883.197V886H455.645ZM554.541 858.173C554.541 849.631 557.477 842.491 563.35 836.752C569.355 831.013 577.297 828.144 587.173 828.144C597.049 828.144 604.924 831.013 610.796 836.752C616.802 842.491 619.805 849.631 619.805 858.173C619.805 866.715 616.802 873.855 610.796 879.594C604.924 885.333 597.049 888.202 587.173 888.202C577.297 888.202 569.355 885.333 563.35 879.594C557.477 873.855 554.541 866.715 554.541 858.173ZM881.46 825.141L950.127 594.516H1016.99L915.493 886H871.45L881.46 825.141ZM818.198 594.516L886.665 825.141L897.075 886H852.632L751.733 594.516H818.198ZM1147.52 644.364L1068.24 886H1004.38L1112.69 594.516H1153.33L1147.52 644.364ZM1213.38 886L1133.91 644.364L1127.5 594.516H1168.54L1277.45 886H1213.38ZM1209.78 777.494V824.54H1055.83V777.494H1209.78ZM1541.7 594.516V886H1481.65L1364.53 690.609V886H1304.47V594.516H1364.53L1481.85 790.106V594.516H1541.7ZM1708.07 758.075H1633.19L1632.79 716.835H1695.65C1706.73 716.835 1715.81 715.434 1722.88 712.631C1729.95 709.695 1735.23 705.491 1738.7 700.019C1742.3 694.413 1744.1 687.606 1744.1 679.599C1744.1 670.523 1742.37 663.183 1738.9 657.577C1735.56 651.972 1730.29 647.901 1723.08 645.365C1716.01 642.829 1706.87 641.562 1695.65 641.562H1654.01V886H1593.96V594.516H1695.65C1712.6 594.516 1727.75 596.117 1741.1 599.32C1754.58 602.523 1765.99 607.395 1775.33 613.935C1784.67 620.474 1791.81 628.749 1796.75 638.759C1801.69 648.635 1804.16 660.38 1804.16 673.993C1804.16 686.005 1801.42 697.082 1795.95 707.226C1790.61 717.369 1782.14 725.644 1770.53 732.05C1759.05 738.456 1744.03 741.993 1725.48 742.66L1708.07 758.075ZM1705.46 886H1616.78L1640.2 839.154H1705.46C1716.01 839.154 1724.62 837.486 1731.29 834.149C1737.96 830.679 1742.9 826.008 1746.1 820.136C1749.31 814.263 1750.91 807.523 1750.91 799.916C1750.91 791.374 1749.44 783.967 1746.5 777.694C1743.7 771.422 1739.16 766.617 1732.89 763.28C1726.62 759.81 1718.34 758.075 1708.07 758.075H1650.21L1650.61 716.835H1722.68L1736.49 733.051C1754.24 732.784 1768.53 735.92 1779.34 742.46C1790.28 748.866 1798.22 757.208 1803.16 767.484C1808.23 777.761 1810.77 788.772 1810.77 800.517C1810.77 819.201 1806.7 834.95 1798.55 847.763C1790.41 860.442 1778.47 869.984 1762.72 876.391C1747.1 882.797 1728.02 886 1705.46 886ZM2016.77 594.516H2076.63V787.104C2076.63 809.525 2071.82 828.41 2062.21 843.759C2052.74 859.107 2039.59 870.652 2022.77 878.393C2006.09 886.133 1986.87 890.004 1965.12 890.004C1943.36 890.004 1924.01 886.133 1907.06 878.393C1890.24 870.652 1877.03 859.107 1867.42 843.759C1857.95 828.41 1853.21 809.525 1853.21 787.104V594.516H1913.27V787.104C1913.27 800.183 1915.34 810.86 1919.47 819.135C1923.61 827.41 1929.55 833.482 1937.29 837.353C1945.16 841.223 1954.44 843.158 1965.12 843.158C1976.06 843.158 1985.34 841.223 1992.94 837.353C2000.69 833.482 2006.56 827.41 2010.56 819.135C2014.7 810.86 2016.77 800.183 2016.77 787.104V594.516ZM2215.56 886H2152.1L2152.5 839.154H2215.56C2231.31 839.154 2244.59 835.618 2255.4 828.544C2266.21 821.337 2274.35 810.86 2279.82 797.113C2285.43 783.367 2288.23 766.75 2288.23 747.265V733.051C2288.23 718.103 2286.63 704.957 2283.43 693.612C2280.36 682.268 2275.75 672.725 2269.61 664.984C2263.47 657.243 2255.93 651.438 2246.99 647.567C2238.05 643.563 2227.77 641.562 2216.16 641.562H2150.9V594.516H2216.16C2235.65 594.516 2253.47 597.852 2269.61 604.525C2285.9 611.065 2299.98 620.474 2311.86 632.753C2323.73 645.032 2332.88 659.713 2339.28 676.796C2345.82 693.746 2349.09 712.631 2349.09 733.451V747.265C2349.09 767.951 2345.82 786.837 2339.28 803.92C2332.88 821.003 2323.73 835.684 2311.86 847.963C2300.11 860.108 2286.03 869.517 2269.61 876.19C2253.33 882.73 2235.31 886 2215.56 886ZM2186.13 594.516V886H2126.07V594.516H2186.13Z" fill="white"/>
<path d="M46.1426 1002.03C46.1426 1000.37 45.8822 998.906 45.3613 997.637C44.873 996.335 43.9941 995.163 42.7246 994.121C41.4876 993.079 39.7624 992.087 37.5488 991.143C35.3678 990.199 32.6009 989.238 29.248 988.262C25.7324 987.22 22.5586 986.064 19.7266 984.795C16.8945 983.493 14.4694 982.012 12.4512 980.352C10.4329 978.691 8.88672 976.787 7.8125 974.639C6.73828 972.49 6.20117 970.033 6.20117 967.266C6.20117 964.499 6.77083 961.943 7.91016 959.6C9.04948 957.256 10.6771 955.221 12.793 953.496C14.9414 951.738 17.4967 950.371 20.459 949.395C23.4212 948.418 26.7253 947.93 30.3711 947.93C35.7096 947.93 40.2344 948.955 43.9453 951.006C47.6888 953.024 50.5371 955.677 52.4902 958.965C54.4434 962.22 55.4199 965.703 55.4199 969.414H46.0449C46.0449 966.745 45.4753 964.385 44.3359 962.334C43.1966 960.251 41.4714 958.623 39.1602 957.451C36.849 956.247 33.9193 955.645 30.3711 955.645C27.0182 955.645 24.2513 956.149 22.0703 957.158C19.8893 958.167 18.2617 959.535 17.1875 961.26C16.1458 962.985 15.625 964.954 15.625 967.168C15.625 968.665 15.9342 970.033 16.5527 971.27C17.2038 972.474 18.1966 973.597 19.5312 974.639C20.8984 975.68 22.6237 976.641 24.707 977.52C26.8229 978.398 29.3457 979.245 32.2754 980.059C36.3118 981.198 39.7949 982.467 42.7246 983.867C45.6543 985.267 48.0632 986.846 49.9512 988.604C51.8717 990.329 53.2878 992.298 54.1992 994.512C55.1432 996.693 55.6152 999.167 55.6152 1001.93C55.6152 1004.83 55.0293 1007.45 53.8574 1009.79C52.6855 1012.14 51.0091 1014.14 48.8281 1015.8C46.6471 1017.46 44.0267 1018.75 40.9668 1019.66C37.9395 1020.54 34.554 1020.98 30.8105 1020.98C27.5228 1020.98 24.2839 1020.52 21.0938 1019.61C17.9362 1018.7 15.0553 1017.33 12.4512 1015.51C9.87956 1013.68 7.8125 1011.44 6.25 1008.77C4.72005 1006.07 3.95508 1002.94 3.95508 999.395H13.3301C13.3301 1001.84 13.8021 1003.94 14.7461 1005.69C15.6901 1007.42 16.9759 1008.85 18.6035 1009.99C20.2637 1011.13 22.1354 1011.98 24.2188 1012.53C26.3346 1013.05 28.5319 1013.31 30.8105 1013.31C34.0983 1013.31 36.8815 1012.85 39.1602 1011.94C41.4388 1011.03 43.1641 1009.73 44.3359 1008.04C45.5404 1006.34 46.1426 1004.34 46.1426 1002.03ZM101.848 992.119H82.8535V984.453H101.848C105.526 984.453 108.505 983.867 110.783 982.695C113.062 981.523 114.722 979.896 115.764 977.812C116.838 975.729 117.375 973.353 117.375 970.684C117.375 968.242 116.838 965.947 115.764 963.799C114.722 961.65 113.062 959.925 110.783 958.623C108.505 957.288 105.526 956.621 101.848 956.621H85.0508V1020H75.627V948.906H101.848C107.219 948.906 111.76 949.834 115.471 951.689C119.182 953.545 121.997 956.117 123.918 959.404C125.839 962.66 126.799 966.387 126.799 970.586C126.799 975.143 125.839 979.033 123.918 982.256C121.997 985.479 119.182 987.936 115.471 989.629C111.76 991.289 107.219 992.119 101.848 992.119ZM191.879 1012.33V1020H154.232V1012.33H191.879ZM156.137 948.906V1020H146.713V948.906H156.137ZM186.898 979.473V987.139H154.232V979.473H186.898ZM191.391 948.906V956.621H154.232V948.906H191.391ZM254.469 997.393H263.844C263.355 1001.88 262.07 1005.9 259.986 1009.45C257.903 1013 254.957 1015.82 251.148 1017.9C247.34 1019.95 242.587 1020.98 236.891 1020.98C232.724 1020.98 228.932 1020.2 225.514 1018.63C222.128 1017.07 219.215 1014.86 216.773 1011.99C214.332 1009.1 212.444 1005.63 211.109 1001.59C209.807 997.523 209.156 992.998 209.156 988.018V980.938C209.156 975.957 209.807 971.449 211.109 967.412C212.444 963.343 214.348 959.86 216.822 956.963C219.329 954.066 222.34 951.836 225.855 950.273C229.371 948.711 233.326 947.93 237.721 947.93C243.092 947.93 247.633 948.939 251.344 950.957C255.055 952.975 257.936 955.775 259.986 959.355C262.07 962.904 263.355 967.021 263.844 971.709H254.469C254.013 968.389 253.167 965.54 251.93 963.164C250.693 960.755 248.935 958.9 246.656 957.598C244.378 956.296 241.399 955.645 237.721 955.645C234.563 955.645 231.78 956.247 229.371 957.451C226.995 958.656 224.993 960.365 223.365 962.578C221.77 964.792 220.566 967.445 219.752 970.537C218.938 973.63 218.531 977.064 218.531 980.84V988.018C218.531 991.501 218.889 994.772 219.605 997.832C220.354 1000.89 221.477 1003.58 222.975 1005.89C224.472 1008.2 226.376 1010.02 228.688 1011.36C230.999 1012.66 233.733 1013.31 236.891 1013.31C240.895 1013.31 244.085 1012.68 246.461 1011.41C248.837 1010.14 250.628 1008.31 251.832 1005.94C253.069 1003.56 253.948 1000.71 254.469 997.393ZM294.793 948.906V1020H285.369V948.906H294.793ZM347.129 955.205L323.594 1020H313.975L341.074 948.906H347.275L347.129 955.205ZM366.855 1020L343.271 955.205L343.125 948.906H349.326L376.523 1020H366.855ZM365.635 993.682V1001.4H325.693V993.682H365.635ZM437.16 1012.33V1020H401.613V1012.33H437.16ZM403.469 948.906V1020H394.045V948.906H403.469ZM466.059 948.906V1020H456.635V948.906H466.059ZM529.088 1002.03C529.088 1000.37 528.827 998.906 528.307 997.637C527.818 996.335 526.939 995.163 525.67 994.121C524.433 993.079 522.708 992.087 520.494 991.143C518.313 990.199 515.546 989.238 512.193 988.262C508.678 987.22 505.504 986.064 502.672 984.795C499.84 983.493 497.415 982.012 495.396 980.352C493.378 978.691 491.832 976.787 490.758 974.639C489.684 972.49 489.146 970.033 489.146 967.266C489.146 964.499 489.716 961.943 490.855 959.6C491.995 957.256 493.622 955.221 495.738 953.496C497.887 951.738 500.442 950.371 503.404 949.395C506.367 948.418 509.671 947.93 513.316 947.93C518.655 947.93 523.18 948.955 526.891 951.006C530.634 953.024 533.482 955.677 535.436 958.965C537.389 962.22 538.365 965.703 538.365 969.414H528.99C528.99 966.745 528.421 964.385 527.281 962.334C526.142 960.251 524.417 958.623 522.105 957.451C519.794 956.247 516.865 955.645 513.316 955.645C509.964 955.645 507.197 956.149 505.016 957.158C502.835 958.167 501.207 959.535 500.133 961.26C499.091 962.985 498.57 964.954 498.57 967.168C498.57 968.665 498.88 970.033 499.498 971.27C500.149 972.474 501.142 973.597 502.477 974.639C503.844 975.68 505.569 976.641 507.652 977.52C509.768 978.398 512.291 979.245 515.221 980.059C519.257 981.198 522.74 982.467 525.67 983.867C528.6 985.267 531.008 986.846 532.896 988.604C534.817 990.329 536.233 992.298 537.145 994.512C538.089 996.693 538.561 999.167 538.561 1001.93C538.561 1004.83 537.975 1007.45 536.803 1009.79C535.631 1012.14 533.954 1014.14 531.773 1015.8C529.592 1017.46 526.972 1018.75 523.912 1019.66C520.885 1020.54 517.499 1020.98 513.756 1020.98C510.468 1020.98 507.229 1020.52 504.039 1019.61C500.882 1018.7 498.001 1017.33 495.396 1015.51C492.825 1013.68 490.758 1011.44 489.195 1008.77C487.665 1006.07 486.9 1002.94 486.9 999.395H496.275C496.275 1001.84 496.747 1003.94 497.691 1005.69C498.635 1007.42 499.921 1008.85 501.549 1009.99C503.209 1011.13 505.081 1011.98 507.164 1012.53C509.28 1013.05 511.477 1013.31 513.756 1013.31C517.044 1013.31 519.827 1012.85 522.105 1011.94C524.384 1011.03 526.109 1009.73 527.281 1008.04C528.486 1006.34 529.088 1004.34 529.088 1002.03ZM584.842 948.906V1020H575.564V948.906H584.842ZM607.693 948.906V956.621H552.762V948.906H607.693ZM682.434 986.748H664.416L664.318 979.18H680.676C683.378 979.18 685.738 978.724 687.756 977.812C689.774 976.901 691.337 975.599 692.443 973.906C693.583 972.181 694.152 970.13 694.152 967.754C694.152 965.15 693.648 963.034 692.639 961.406C691.662 959.746 690.148 958.542 688.098 957.793C686.079 957.012 683.508 956.621 680.383 956.621H666.516V1020H657.092V948.906H680.383C684.029 948.906 687.284 949.281 690.148 950.029C693.013 950.745 695.438 951.885 697.424 953.447C699.442 954.977 700.972 956.93 702.014 959.307C703.055 961.683 703.576 964.531 703.576 967.852C703.576 970.781 702.827 973.434 701.33 975.811C699.833 978.154 697.749 980.075 695.08 981.572C692.443 983.07 689.351 984.03 685.803 984.453L682.434 986.748ZM681.994 1020H660.705L666.027 1012.33H681.994C684.989 1012.33 687.528 1011.81 689.611 1010.77C691.727 1009.73 693.339 1008.26 694.445 1006.38C695.552 1004.46 696.105 1002.19 696.105 999.59C696.105 996.953 695.633 994.674 694.689 992.754C693.745 990.833 692.264 989.352 690.246 988.311C688.228 987.269 685.624 986.748 682.434 986.748H669.006L669.104 979.18H687.463L689.465 981.914C692.883 982.207 695.78 983.184 698.156 984.844C700.533 986.471 702.339 988.555 703.576 991.094C704.846 993.633 705.48 996.432 705.48 999.492C705.48 1003.92 704.504 1007.66 702.551 1010.72C700.63 1013.75 697.912 1016.06 694.396 1017.66C690.881 1019.22 686.747 1020 681.994 1020ZM727.396 948.906H750.932C756.27 948.906 760.779 949.72 764.457 951.348C768.168 952.975 770.984 955.384 772.904 958.574C774.857 961.732 775.834 965.622 775.834 970.244C775.834 973.499 775.167 976.478 773.832 979.18C772.53 981.849 770.642 984.128 768.168 986.016C765.727 987.871 762.797 989.255 759.379 990.166L756.742 991.191H734.623L734.525 983.525H751.225C754.61 983.525 757.426 982.939 759.672 981.768C761.918 980.563 763.611 978.952 764.75 976.934C765.889 974.915 766.459 972.686 766.459 970.244C766.459 967.51 765.922 965.117 764.848 963.066C763.773 961.016 762.081 959.437 759.77 958.33C757.491 957.191 754.545 956.621 750.932 956.621H736.82V1020H727.396V948.906ZM768.949 1020L751.664 987.773L761.479 987.725L779.008 1019.41V1020H768.949ZM842.184 1012.33V1020H804.537V1012.33H842.184ZM806.441 948.906V1020H797.018V948.906H806.441ZM837.203 979.473V987.139H804.537V979.473H837.203ZM841.695 948.906V956.621H804.537V948.906H841.695ZM888.172 955.205L864.637 1020H855.018L882.117 948.906H888.318L888.172 955.205ZM907.898 1020L884.314 955.205L884.168 948.906H890.369L917.566 1020H907.898ZM906.678 993.682V1001.4H866.736V993.682H906.678ZM972.979 1002.03C972.979 1000.37 972.718 998.906 972.197 997.637C971.709 996.335 970.83 995.163 969.561 994.121C968.324 993.079 966.598 992.087 964.385 991.143C962.204 990.199 959.437 989.238 956.084 988.262C952.568 987.22 949.395 986.064 946.562 984.795C943.73 983.493 941.305 982.012 939.287 980.352C937.269 978.691 935.723 976.787 934.648 974.639C933.574 972.49 933.037 970.033 933.037 967.266C933.037 964.499 933.607 961.943 934.746 959.6C935.885 957.256 937.513 955.221 939.629 953.496C941.777 951.738 944.333 950.371 947.295 949.395C950.257 948.418 953.561 947.93 957.207 947.93C962.546 947.93 967.07 948.955 970.781 951.006C974.525 953.024 977.373 955.677 979.326 958.965C981.279 962.22 982.256 965.703 982.256 969.414H972.881C972.881 966.745 972.311 964.385 971.172 962.334C970.033 960.251 968.307 958.623 965.996 957.451C963.685 956.247 960.755 955.645 957.207 955.645C953.854 955.645 951.087 956.149 948.906 957.158C946.725 958.167 945.098 959.535 944.023 961.26C942.982 962.985 942.461 964.954 942.461 967.168C942.461 968.665 942.77 970.033 943.389 971.27C944.04 972.474 945.033 973.597 946.367 974.639C947.734 975.68 949.46 976.641 951.543 977.52C953.659 978.398 956.182 979.245 959.111 980.059C963.148 981.198 966.631 982.467 969.561 983.867C972.49 985.267 974.899 986.846 976.787 988.604C978.708 990.329 980.124 992.298 981.035 994.512C981.979 996.693 982.451 999.167 982.451 1001.93C982.451 1004.83 981.865 1007.45 980.693 1009.79C979.521 1012.14 977.845 1014.14 975.664 1015.8C973.483 1017.46 970.863 1018.75 967.803 1019.66C964.775 1020.54 961.39 1020.98 957.646 1020.98C954.359 1020.98 951.12 1020.52 947.93 1019.61C944.772 1018.7 941.891 1017.33 939.287 1015.51C936.715 1013.68 934.648 1011.44 933.086 1008.77C931.556 1006.07 930.791 1002.94 930.791 999.395H940.166C940.166 1001.84 940.638 1003.94 941.582 1005.69C942.526 1007.42 943.812 1008.85 945.439 1009.99C947.1 1011.13 948.971 1011.98 951.055 1012.53C953.171 1013.05 955.368 1013.31 957.646 1013.31C960.934 1013.31 963.717 1012.85 965.996 1011.94C968.275 1011.03 970 1009.73 971.172 1008.04C972.376 1006.34 972.979 1004.34 972.979 1002.03ZM1028.73 948.906V1020H1019.46V948.906H1028.73ZM1051.58 948.906V956.621H996.652V948.906H1051.58ZM1112.75 980.547L1123.39 972.979C1125.45 971.579 1127.02 970.179 1128.13 968.779C1129.27 967.347 1129.84 965.394 1129.84 962.92C1129.84 960.999 1129.09 959.258 1127.59 957.695C1126.1 956.1 1123.98 955.303 1121.25 955.303C1119.36 955.303 1117.76 955.742 1116.46 956.621C1115.16 957.5 1114.18 958.672 1113.53 960.137C1112.88 961.569 1112.55 963.148 1112.55 964.873C1112.55 966.338 1112.91 967.852 1113.63 969.414C1114.35 970.977 1115.34 972.604 1116.61 974.297C1117.88 975.99 1119.33 977.78 1120.95 979.668L1154.6 1020H1143.76L1116.17 986.992C1113.73 984.128 1111.55 981.507 1109.62 979.131C1107.7 976.722 1106.19 974.395 1105.08 972.148C1104.01 969.902 1103.47 967.575 1103.47 965.166C1103.47 961.455 1104.21 958.33 1105.67 955.791C1107.17 953.219 1109.25 951.266 1111.92 949.932C1114.59 948.597 1117.71 947.93 1121.29 947.93C1124.78 947.93 1127.77 948.63 1130.28 950.029C1132.82 951.396 1134.77 953.219 1136.14 955.498C1137.51 957.744 1138.19 960.218 1138.19 962.92C1138.19 965.199 1137.78 967.249 1136.97 969.072C1136.15 970.863 1135.02 972.507 1133.55 974.004C1132.12 975.501 1130.44 976.966 1128.52 978.398L1114.41 988.896C1112.07 990.622 1110.36 992.266 1109.28 993.828C1108.21 995.391 1107.51 996.774 1107.18 997.979C1106.89 999.183 1106.74 1000.14 1106.74 1000.86C1106.74 1003.17 1107.25 1005.29 1108.26 1007.21C1109.27 1009.13 1110.8 1010.67 1112.85 1011.85C1114.93 1012.99 1117.54 1013.55 1120.66 1013.55C1123.39 1013.55 1126.05 1012.94 1128.62 1011.7C1131.22 1010.43 1133.55 1008.64 1135.6 1006.33C1137.65 1003.98 1139.28 1001.2 1140.48 997.979C1141.72 994.723 1142.34 991.126 1142.34 987.188H1150.45C1150.45 990.41 1150.14 993.454 1149.52 996.318C1148.9 999.183 1147.94 1001.85 1146.64 1004.33C1145.37 1006.77 1143.74 1009 1141.75 1011.02C1141.46 1011.31 1141.23 1011.65 1141.07 1012.04C1140.91 1012.43 1140.68 1012.77 1140.39 1013.07C1137.95 1015.7 1134.93 1017.69 1131.35 1019.02C1127.81 1020.33 1124.24 1020.98 1120.66 1020.98C1115.94 1020.98 1111.85 1020.11 1108.4 1018.39C1104.99 1016.66 1102.35 1014.29 1100.49 1011.26C1098.64 1008.23 1097.71 1004.77 1097.71 1000.86C1097.71 997.865 1098.35 995.228 1099.62 992.949C1100.92 990.671 1102.69 988.538 1104.94 986.553C1107.22 984.567 1109.82 982.565 1112.75 980.547ZM1256.53 984.6V1010.62C1255.65 1011.93 1254.25 1013.39 1252.33 1015.02C1250.41 1016.61 1247.76 1018.01 1244.38 1019.22C1241.02 1020.39 1236.69 1020.98 1231.39 1020.98C1227.06 1020.98 1223.07 1020.23 1219.42 1018.73C1215.81 1017.2 1212.67 1014.99 1210 1012.09C1207.36 1009.16 1205.31 1005.61 1203.85 1001.45C1202.42 997.246 1201.7 992.493 1201.7 987.188V981.67C1201.7 976.364 1202.32 971.628 1203.55 967.461C1204.82 963.294 1206.68 959.762 1209.12 956.865C1211.56 953.936 1214.56 951.722 1218.11 950.225C1221.65 948.695 1225.72 947.93 1230.31 947.93C1235.75 947.93 1240.29 948.874 1243.94 950.762C1247.61 952.617 1250.48 955.189 1252.53 958.477C1254.61 961.764 1255.95 965.508 1256.53 969.707H1247.11C1246.69 967.135 1245.84 964.792 1244.57 962.676C1243.33 960.56 1241.56 958.867 1239.25 957.598C1236.94 956.296 1233.96 955.645 1230.31 955.645C1227.02 955.645 1224.18 956.247 1221.77 957.451C1219.36 958.656 1217.37 960.381 1215.81 962.627C1214.25 964.873 1213.08 967.591 1212.29 970.781C1211.55 973.971 1211.17 977.568 1211.17 981.572V987.188C1211.17 991.289 1211.64 994.951 1212.59 998.174C1213.56 1001.4 1214.95 1004.15 1216.74 1006.43C1218.53 1008.67 1220.66 1010.38 1223.13 1011.55C1225.64 1012.72 1228.41 1013.31 1231.44 1013.31C1234.79 1013.31 1237.51 1013.03 1239.59 1012.48C1241.67 1011.89 1243.3 1011.21 1244.47 1010.43C1245.64 1009.62 1246.54 1008.85 1247.16 1008.13V992.217H1230.7V984.6H1256.53ZM1325.32 1012.33V1020H1287.68V1012.33H1325.32ZM1289.58 948.906V1020H1280.16V948.906H1289.58ZM1320.34 979.473V987.139H1287.68V979.473H1320.34ZM1324.84 948.906V956.621H1287.68V948.906H1324.84ZM1399.68 948.906V1020H1390.21L1354.42 965.166V1020H1344.99V948.906H1354.42L1390.36 1003.89V948.906H1399.68ZM1469.55 1012.33V1020H1431.9V1012.33H1469.55ZM1433.8 948.906V1020H1424.38V948.906H1433.8ZM1464.57 979.473V987.139H1431.9V979.473H1464.57ZM1469.06 948.906V956.621H1431.9V948.906H1469.06ZM1489.22 948.906H1512.75C1518.09 948.906 1522.6 949.72 1526.28 951.348C1529.99 952.975 1532.8 955.384 1534.72 958.574C1536.68 961.732 1537.65 965.622 1537.65 970.244C1537.65 973.499 1536.99 976.478 1535.65 979.18C1534.35 981.849 1532.46 984.128 1529.99 986.016C1527.55 987.871 1524.62 989.255 1521.2 990.166L1518.56 991.191H1496.44L1496.35 983.525H1513.04C1516.43 983.525 1519.25 982.939 1521.49 981.768C1523.74 980.563 1525.43 978.952 1526.57 976.934C1527.71 974.915 1528.28 972.686 1528.28 970.244C1528.28 967.51 1527.74 965.117 1526.67 963.066C1525.59 961.016 1523.9 959.437 1521.59 958.33C1519.31 957.191 1516.37 956.621 1512.75 956.621H1498.64V1020H1489.22V948.906ZM1530.77 1020L1513.48 987.773L1523.3 987.725L1540.83 1019.41V1020H1530.77ZM1585.16 955.205L1561.62 1020H1552L1579.1 948.906H1585.3L1585.16 955.205ZM1604.88 1020L1581.3 955.205L1581.15 948.906H1587.35L1614.55 1020H1604.88ZM1603.66 993.682V1001.4H1563.72V993.682H1603.66ZM1675.19 1012.33V1020H1639.64V1012.33H1675.19ZM1641.5 948.906V1020H1632.07V948.906H1641.5ZM1764.67 1002.03C1764.67 1000.37 1764.41 998.906 1763.89 997.637C1763.4 996.335 1762.53 995.163 1761.26 994.121C1760.02 993.079 1758.29 992.087 1756.08 991.143C1753.9 990.199 1751.13 989.238 1747.78 988.262C1744.26 987.22 1741.09 986.064 1738.26 984.795C1735.43 983.493 1733 982.012 1730.98 980.352C1728.96 978.691 1727.42 976.787 1726.34 974.639C1725.27 972.49 1724.73 970.033 1724.73 967.266C1724.73 964.499 1725.3 961.943 1726.44 959.6C1727.58 957.256 1729.21 955.221 1731.32 953.496C1733.47 951.738 1736.03 950.371 1738.99 949.395C1741.95 948.418 1745.26 947.93 1748.9 947.93C1754.24 947.93 1758.77 948.955 1762.48 951.006C1766.22 953.024 1769.07 955.677 1771.02 958.965C1772.97 962.22 1773.95 965.703 1773.95 969.414H1764.58C1764.58 966.745 1764.01 964.385 1762.87 962.334C1761.73 960.251 1760 958.623 1757.69 957.451C1755.38 956.247 1752.45 955.645 1748.9 955.645C1745.55 955.645 1742.78 956.149 1740.6 957.158C1738.42 958.167 1736.79 959.535 1735.72 961.26C1734.68 962.985 1734.16 964.954 1734.16 967.168C1734.16 968.665 1734.47 970.033 1735.08 971.27C1735.74 972.474 1736.73 973.597 1738.06 974.639C1739.43 975.68 1741.15 976.641 1743.24 977.52C1745.35 978.398 1747.88 979.245 1750.81 980.059C1754.84 981.198 1758.33 982.467 1761.26 983.867C1764.19 985.267 1766.59 986.846 1768.48 988.604C1770.4 990.329 1771.82 992.298 1772.73 994.512C1773.67 996.693 1774.15 999.167 1774.15 1001.93C1774.15 1004.83 1773.56 1007.45 1772.39 1009.79C1771.22 1012.14 1769.54 1014.14 1767.36 1015.8C1765.18 1017.46 1762.56 1018.75 1759.5 1019.66C1756.47 1020.54 1753.09 1020.98 1749.34 1020.98C1746.05 1020.98 1742.82 1020.52 1739.62 1019.61C1736.47 1018.7 1733.59 1017.33 1730.98 1015.51C1728.41 1013.68 1726.34 1011.44 1724.78 1008.77C1723.25 1006.07 1722.49 1002.94 1722.49 999.395H1731.86C1731.86 1001.84 1732.33 1003.94 1733.28 1005.69C1734.22 1007.42 1735.51 1008.85 1737.13 1009.99C1738.79 1011.13 1740.67 1011.98 1742.75 1012.53C1744.87 1013.05 1747.06 1013.31 1749.34 1013.31C1752.63 1013.31 1755.41 1012.85 1757.69 1011.94C1759.97 1011.03 1761.7 1009.73 1762.87 1008.04C1764.07 1006.34 1764.67 1004.34 1764.67 1002.03ZM1834.83 948.906H1844.21V997.002C1844.21 1002.34 1843.02 1006.78 1840.64 1010.33C1838.27 1013.88 1835.11 1016.55 1831.17 1018.34C1827.26 1020.1 1823.02 1020.98 1818.43 1020.98C1813.61 1020.98 1809.25 1020.1 1805.34 1018.34C1801.47 1016.55 1798.39 1013.88 1796.11 1010.33C1793.87 1006.78 1792.74 1002.34 1792.74 997.002V948.906H1802.07V997.002C1802.07 1000.71 1802.75 1003.77 1804.12 1006.18C1805.49 1008.59 1807.39 1010.38 1809.83 1011.55C1812.31 1012.72 1815.17 1013.31 1818.43 1013.31C1821.71 1013.31 1824.58 1012.72 1827.02 1011.55C1829.49 1010.38 1831.41 1008.59 1832.78 1006.18C1834.15 1003.77 1834.83 1000.71 1834.83 997.002V948.906ZM1867 948.906H1890.54C1895.88 948.906 1900.38 949.72 1904.06 951.348C1907.77 952.975 1910.59 955.384 1912.51 958.574C1914.46 961.732 1915.44 965.622 1915.44 970.244C1915.44 973.499 1914.77 976.478 1913.44 979.18C1912.14 981.849 1910.25 984.128 1907.77 986.016C1905.33 987.871 1902.4 989.255 1898.98 990.166L1896.35 991.191H1874.23L1874.13 983.525H1890.83C1894.22 983.525 1897.03 982.939 1899.28 981.768C1901.52 980.563 1903.22 978.952 1904.36 976.934C1905.49 974.915 1906.06 972.686 1906.06 970.244C1906.06 967.51 1905.53 965.117 1904.45 963.066C1903.38 961.016 1901.69 959.437 1899.38 958.33C1897.1 957.191 1894.15 956.621 1890.54 956.621H1876.43V1020H1867V948.906ZM1908.55 1020L1891.27 987.773L1901.08 987.725L1918.61 1019.41V1020H1908.55ZM1989.16 984.6V1010.62C1988.28 1011.93 1986.88 1013.39 1984.96 1015.02C1983.04 1016.61 1980.39 1018.01 1977 1019.22C1973.65 1020.39 1969.32 1020.98 1964.02 1020.98C1959.69 1020.98 1955.7 1020.23 1952.05 1018.73C1948.44 1017.2 1945.3 1014.99 1942.63 1012.09C1939.99 1009.16 1937.94 1005.61 1936.48 1001.45C1935.04 997.246 1934.33 992.493 1934.33 987.188V981.67C1934.33 976.364 1934.95 971.628 1936.18 967.461C1937.45 963.294 1939.31 959.762 1941.75 956.865C1944.19 953.936 1947.19 951.722 1950.73 950.225C1954.28 948.695 1958.35 947.93 1962.94 947.93C1968.38 947.93 1972.92 948.874 1976.56 950.762C1980.24 952.617 1983.11 955.189 1985.16 958.477C1987.24 961.764 1988.58 965.508 1989.16 969.707H1979.74C1979.32 967.135 1978.47 964.792 1977.2 962.676C1975.96 960.56 1974.19 958.867 1971.88 957.598C1969.57 956.296 1966.59 955.645 1962.94 955.645C1959.65 955.645 1956.81 956.247 1954.4 957.451C1951.99 958.656 1950 960.381 1948.44 962.627C1946.88 964.873 1945.71 967.591 1944.92 970.781C1944.18 973.971 1943.8 977.568 1943.8 981.572V987.188C1943.8 991.289 1944.27 994.951 1945.22 998.174C1946.19 1001.4 1947.58 1004.15 1949.37 1006.43C1951.16 1008.67 1953.29 1010.38 1955.76 1011.55C1958.27 1012.72 1961.04 1013.31 1964.06 1013.31C1967.42 1013.31 1970.14 1013.03 1972.22 1012.48C1974.3 1011.89 1975.93 1011.21 1977.1 1010.43C1978.27 1009.62 1979.17 1008.85 1979.79 1008.13V992.217H1963.33V984.6H1989.16ZM2057.95 1012.33V1020H2020.31V1012.33H2057.95ZM2022.21 948.906V1020H2012.79V948.906H2022.21ZM2052.97 979.473V987.139H2020.31V979.473H2052.97ZM2057.46 948.906V956.621H2020.31V948.906H2057.46ZM2132.36 982.207V986.699C2132.36 992.038 2131.69 996.823 2130.36 1001.05C2129.02 1005.29 2127.1 1008.88 2124.6 1011.85C2122.09 1014.81 2119.08 1017.07 2115.56 1018.63C2112.08 1020.2 2108.17 1020.98 2103.84 1020.98C2099.64 1020.98 2095.79 1020.2 2092.27 1018.63C2088.79 1017.07 2085.76 1014.81 2083.19 1011.85C2080.65 1008.88 2078.68 1005.29 2077.28 1001.05C2075.88 996.823 2075.18 992.038 2075.18 986.699V982.207C2075.18 976.868 2075.87 972.1 2077.23 967.9C2078.63 963.669 2080.6 960.072 2083.14 957.109C2085.68 954.115 2088.69 951.836 2092.17 950.273C2095.69 948.711 2099.55 947.93 2103.75 947.93C2108.08 947.93 2111.98 948.711 2115.46 950.273C2118.98 951.836 2121.99 954.115 2124.5 957.109C2127.04 960.072 2128.97 963.669 2130.31 967.9C2131.68 972.1 2132.36 976.868 2132.36 982.207ZM2123.03 986.699V982.109C2123.03 977.878 2122.59 974.134 2121.71 970.879C2120.87 967.624 2119.62 964.889 2117.96 962.676C2116.29 960.462 2114.26 958.786 2111.85 957.646C2109.48 956.507 2106.77 955.938 2103.75 955.938C2100.82 955.938 2098.16 956.507 2095.79 957.646C2093.44 958.786 2091.43 960.462 2089.73 962.676C2088.07 964.889 2086.79 967.624 2085.88 970.879C2084.96 974.134 2084.51 977.878 2084.51 982.109V986.699C2084.51 990.964 2084.96 994.74 2085.88 998.027C2086.79 1001.28 2088.09 1004.03 2089.78 1006.28C2091.51 1008.49 2093.54 1010.17 2095.88 1011.31C2098.26 1012.45 2100.91 1013.02 2103.84 1013.02C2106.9 1013.02 2109.62 1012.45 2112 1011.31C2114.37 1010.17 2116.38 1008.49 2118 1006.28C2119.66 1004.03 2120.92 1001.28 2121.76 998.027C2122.61 994.74 2123.03 990.964 2123.03 986.699ZM2209.16 948.906V1020H2199.69L2163.89 965.166V1020H2154.47V948.906H2163.89L2199.83 1003.89V948.906H2209.16Z" fill="#DADADA"/>
</svg>
